<?xml version="1.0" encoding="UTF-8"?>
<svg id="Layer_2" data-name="Layer 2" xmlns="http://www.w3.org/2000/svg" viewBox="0 0 123.47 76.36">
  <defs>
    <style>
      .cls-1 {
        fill: #13a51a;
      }
    </style>
  </defs>
  <g id="objects">
    <path class="cls-1" d="m111.1,27.52l-3.13-3.02-1.66-1.5-3.36-2.97c-7.37-6.1-13.45-14.72-20.24-18.96-6.18-3.63-8.79,2.66-5.48,9.15-.32.32-.96.96-1.27,1.28-4.27-5.54-5,.09-7.2,1.07,2.45,2.45,4.58,5.22,6.08,8.62.61.62,1.83,1.84,2.45,2.45,1.78,1.79,3.56,3.54,5.33,5.28-10.5.01-21.67.14-32.05,1.82-9.38,1.36-20.72-.59-30,.91-2.82.45-7.5-1.37-9.38.9h2.81c-2.81,1.37-5.62,0-8.43.46,0,.91,0,1.36-.94,1.81,1.87,0,4.68-.45,6.56,0v1.36c-1.88.46-4.69-.45-6.56,0v1.82c0,.46-.94.46-1.88.46h3.75v1.81c0,.46-.93.46-1.87.46,0,.9-.94,1.81,0,2.27h2.81c-3.75.45-5.63,2.72-5.63,4.08.94-.45.94.91,1.88.46-2.81,1.36-5.63,3.17-1.88,3.63,27,1.12,54.63.09,81.85-.82-.31.29-.27.29.06,0,.7-.02-8.22,7.37-11.82,10.38-1.37,1.37-1.95,3.15-2.19,4.89,5.99-3.78,11.59-8.4,17.05-13.27.8-.72,1.6-1.45,2.4-2.18.23-.01.45-.01.68-.02-.25.19-.5.4-.74.58-6.77,5.49-11.96,11.33-18.43,15.89-.36.23-.73.46-1.1.7-.03.75-.01,1.47,0,2.1.37,2.82,1.98,5.66,6.02,4.8l1.84-1.84c.87.39,1.41,1.21,1.91,2,4.31-3.62,8.53-7.32,12.79-10.99,2.56-2.4,5.15-4.73,7.81-6.95,1.32-1.12,2.67-2.2,4.03-3.25l.51-.39.26-.19.13-.1.19-.16,1.58-1.31c1.09-.89,2.18-1.78,3.28-2.68-1.09.94-2.17,1.87-3.25,2.8l-1.58,1.37-1.05.85c-1.34,1.1-2.68,2.19-4.02,3.29-2.66,2.21-5.28,4.46-7.89,6.72-4.11,3.83-8.16,7.81-12.3,11.73.62.89,1.33,1.53,2.67,1.11,2.18-.28,5.51-5.52,8.28-7.65,4.01-2.74,7.77-6.02,11.49-9.34l2.79-2.5,1.39-1.23.7-.62,1.23-1.14c3.42-3.17,6.92-6.35,10.63-9.58,1.5-1.32,2.99-2.67,4.46-4.04-3.84-4.18-8.1-8.46-12.37-12.61Z"/>
  </g>
</svg>
